<?xml version="1.0" encoding="UTF-8" standalone="no"?>
<!DOCTYPE svg PUBLIC "-//W3C//DTD SVG 1.1//EN" "http://www.w3.org/Graphics/SVG/1.1/DTD/svg11.dtd">
<svg width="100%" height="100%" viewBox="0 0 270 226" version="1.1" xmlns="http://www.w3.org/2000/svg" xmlns:xlink="http://www.w3.org/1999/xlink" xml:space="preserve" xmlns:serif="http://www.serif.com/" style="fill-rule:evenodd;clip-rule:evenodd;stroke-linecap:round;stroke-linejoin:round;">
    <g id="Artboard1" transform="matrix(1,0,0,1,-18.306,-8.03279)">
        <rect x="18.306" y="8.033" width="269.945" height="225.956" style="fill:none;"/>
        <g transform="matrix(1.97052,0,0,1,-29.78,0.0327869)">
            <path d="M44,90.984C32.336,84.481 27.664,60.421 35.555,50C38.616,45.956 45.333,55 52,65C58.667,73.667 70,67 80,65C93.333,60.333 105,55.333 115,50C117,35.333 120.333,25.333 125,20C128.333,25.333 129.333,32.667 128,42C130.126,40.785 132.459,38.602 135,35.451C138.037,31.684 141.37,26.534 145,20C149.667,25.333 150.667,32.667 148,42C152.667,50.667 154,59.333 152,68C149.333,77.333 145.333,84 140,88C134.667,92.667 131.333,98.333 130,105C128.667,115 129.333,126.667 132,140C134,156.667 136,173.333 138,190C139.333,200 138.333,206.667 135,210C130.333,211.333 127,206.333 125,195C123,181.667 120.667,171.667 118,165C111.333,161.667 103.667,160.667 95,162C85,164 76.667,166 70,168C64.667,176 60.667,186.667 58,200C56,210 54,216.667 52,220C48,221.333 45.333,218 44,210C42.667,200 43.074,183.821 49.021,171.721C57.466,154.54 49.757,87.546 44,90.984Z" style="fill:none;fill-rule:nonzero;stroke:rgb(232,213,160);stroke-width:2.5px;"/>
        </g>
        <g transform="matrix(1,0,0,1,95.9344,-0.513661)">
            <circle cx="132" cy="55" r="2.5" style="fill:rgb(232,213,160);"/>
        </g>
        <g transform="matrix(1,0,0,1,110.689,-3.01366)">
            <circle cx="146" cy="55" r="2.5" style="fill:rgb(232,213,160);"/>
        </g>
    </g>
</svg>
