<svg xmlns="http://www.w3.org/2000/svg" viewBox="0 0 120 120" fill="none">
  <!-- Aβ fibril: stacked wavy ribbons suggesting amyloid fibril cross-beta structure -->
  <defs>
    <linearGradient id="ab-g" x1="0" y1="0" x2="1" y2="1">
      <stop offset="0%" stop-color="#8B7355" stop-opacity="0.7"/>
      <stop offset="100%" stop-color="#6B5B45" stop-opacity="0.5"/>
    </linearGradient>
  </defs>
  <g transform="translate(60,60)">
    <!-- Stacked fibril layers -->
    <path d="M-30,-32 Q-10,-40 10,-32 Q30,-24 30,-20 Q30,-16 10,-24 Q-10,-32 -30,-24Z" fill="url(#ab-g)" opacity="0.5"/>
    <path d="M-32,-20 Q-12,-28 12,-20 Q32,-12 32,-8 Q32,-4 12,-12 Q-12,-20 -32,-12Z" fill="url(#ab-g)" opacity="0.6"/>
    <path d="M-30,-8 Q-10,-16 10,-8 Q30,0 30,4 Q30,8 10,0 Q-10,-8 -30,0Z" fill="url(#ab-g)" opacity="0.7"/>
    <path d="M-32,4 Q-12,-4 12,4 Q32,12 32,16 Q32,20 12,12 Q-12,4 -32,12Z" fill="url(#ab-g)" opacity="0.8"/>
    <path d="M-30,16 Q-10,8 10,16 Q30,24 30,28 Q30,32 10,24 Q-10,16 -30,24Z" fill="url(#ab-g)" opacity="0.9"/>
  </g>
</svg>
